<?xml version="1.0" encoding="utf-8"?>
<!-- Generator: Adobe Illustrator 16.0.0, SVG Export Plug-In . SVG Version: 6.00 Build 0)  -->
<svg version="1.2" baseProfile="tiny" id="Layer_1" xmlns="http://www.w3.org/2000/svg" xmlns:xlink="http://www.w3.org/1999/xlink"
	 x="0px" y="0px" width="156px" height="42px" viewBox="197 53 156 42" xml:space="preserve">
<g>
	<path fill="#CB087E" d="M233.56,81.674c0,1.554-1.027,3.46-2.368,4.24l-13.002,7.579c-1.342,0.781-3.52,0.781-4.861,0
		l-13.099-7.579c-1.341-0.78-2.501-2.687-2.501-4.24v-15.19c0-1.551,1.169-3.459,2.509-4.239l13.073-7.581
		c1.341-0.781,3.554-0.781,4.896,0l12.975,7.58c1.341,0.78,2.377,2.688,2.377,4.239V81.674z"/>
	<g>
		<path fill="#F0489B" d="M230.175,79.684c0,1.553-1.045,3.459-2.387,4.239l-9.588,5.591c-1.341,0.78-3.523,0.78-4.865,0
			l-9.556-5.591c-1.342-0.78-2.38-2.687-2.38-4.239V68.475c0-1.552,1.045-3.46,2.386-4.24l9.588-5.59c1.342-0.78,3.524-0.78,4.866,0
			l9.556,5.59c1.341,0.779,2.38,2.688,2.38,4.24V79.684z"/>
	</g>
	<path fill="#0082C2" d="M273.057,81.674c0,1.554-1.027,3.46-2.368,4.24l-13.002,7.579c-1.34,0.781-3.518,0.781-4.86,0l-13.1-7.579
		c-1.34-0.78-2.5-2.687-2.5-4.24v-15.19c0-1.551,1.168-3.459,2.51-4.239l13.072-7.581c1.341-0.781,3.555-0.781,4.896,0l12.975,7.58
		c1.341,0.78,2.376,2.688,2.376,4.239V81.674z"/>
	<g>
		<path fill="#0093CD" d="M269.672,79.684c0,1.553-1.046,3.459-2.388,4.239l-9.587,5.591c-1.341,0.78-3.523,0.78-4.865,0
			l-9.556-5.591c-1.342-0.78-2.381-2.687-2.381-4.239V68.475c0-1.552,1.046-3.46,2.387-4.24l9.588-5.59
			c1.342-0.78,3.524-0.78,4.865,0l9.556,5.59c1.341,0.779,2.381,2.688,2.381,4.24V79.684z"/>
	</g>
	<path fill="#00A98A" d="M312.554,81.674c0,1.554-1.119,3.46-2.463,4.24l-13.048,7.579c-1.342,0.781-3.54,0.781-4.883,0
		l-13.018-7.579c-1.34-0.78-2.417-2.687-2.417-4.24v-15.19c0-1.551,1.074-3.459,2.415-4.239l13.023-7.581
		c1.344-0.779,3.531-0.779,4.874,0l13.056,7.581c1.343,0.779,2.46,2.688,2.46,4.239V81.674L312.554,81.674z"/>
	<g>
		<path fill="#28BB90" d="M309.171,79.684c0,1.553-1.141,3.459-2.483,4.239l-9.634,5.591c-1.34,0.78-3.546,0.78-4.891,0
			l-9.612-5.591c-1.342-0.78-2.44-2.687-2.44-4.239V68.475c0-1.552,1.094-3.46,2.436-4.24l9.611-5.59c1.342-0.78,3.535-0.78,4.875,0
			l9.658,5.59c1.34,0.779,2.48,2.688,2.48,4.24V79.684z"/>
	</g>
	<path fill="#FDDA00" d="M351.769,81.674c0,1.554-1.025,3.46-2.366,4.24l-13.004,7.579c-1.34,0.781-3.519,0.781-4.859,0
		l-13.099-7.579c-1.34-0.78-2.5-2.687-2.5-4.24v-15.19c0-1.551,1.167-3.459,2.508-4.239l13.074-7.581
		c1.34-0.781,3.553-0.781,4.895,0l12.977,7.58c1.339,0.78,2.375,2.688,2.375,4.239V81.674z"/>
	<path fill="#ECBA46" d="M348.387,79.684c0,1.553-1.049,3.459-2.39,4.239l-9.588,5.591c-1.342,0.78-3.522,0.78-4.863,0l-9.558-5.591
		c-1.34-0.78-2.379-2.687-2.379-4.239V68.475c0-1.552,1.046-3.46,2.386-4.24l9.59-5.59c1.339-0.78,3.521-0.78,4.863,0l9.557,5.59
		c1.34,0.779,2.382,2.688,2.382,4.24V79.684L348.387,79.684z"/>
	<g>
		<path fill="#FFFFFF" d="M207.758,63.26h4.306v7.952h7.445V63.26h4.292v21.074h-4.292v-9.24h-7.445v9.24h-4.306V63.26z"/>
	</g>
	<g>
		<path fill="#FFFFFF" d="M247.238,63.823h4.491v13.628c0,1.175,0.114,2.006,0.343,2.492c0.23,0.486,0.607,0.875,1.135,1.167
			c0.527,0.29,1.165,0.438,1.911,0.438c0.789,0,1.468-0.164,2.037-0.487c0.57-0.325,0.964-0.739,1.183-1.239
			c0.217-0.499,0.327-1.457,0.327-2.87V63.823h4.491v12.565c0,2.12-0.133,3.59-0.4,4.413c-0.266,0.821-0.774,1.613-1.525,2.378
			c-0.752,0.764-1.617,1.33-2.597,1.697c-0.98,0.366-2.12,0.553-3.42,0.553c-1.705,0-3.188-0.352-4.451-1.054
			c-1.262-0.7-2.167-1.578-2.709-2.636c-0.542-1.055-0.815-2.84-0.815-5.352L247.238,63.823L247.238,63.823z"/>
	</g>
	<g>
		<g>
			<path fill="#FFFFFF" d="M304.387,67.385c-0.639,0.674-1.84,1.708-2.949,2.786c-1.934-2.399-4.02-3.516-6.322-3.516
				c-2.006,0-3.687,0.688-5.042,2.063c-1.354,1.375-2.033,3.047-2.033,5.014c0,2.035,0.705,3.757,2.111,5.172
				c1.403,1.413,3.141,2.188,5.201,2.109c1.342-0.051,2.511-0.463,3.28-0.971c0.771-0.508,1.77-1.808,2.137-3.284
				c-2.444,0-3.001-0.09-5.136-0.014c0-2.044,0-2.574,0-3.939c3.229,0.012,6.46-0.001,9.69,0c0.012,0.323,0.017,0.527,0.027,0.883
				c0,1.845-0.462,4.438-1.387,6.09c-0.924,1.653-2.118,2.913-3.587,3.782c-1.471,0.869-3.194,1.304-5.171,1.304
				c-2.114,0-4.004-0.477-5.662-1.426c-1.658-0.951-2.969-2.305-3.936-4.062c-0.966-1.758-1.44-3.661-1.449-5.687
				c-0.009-2.659,0.944-5.266,2.676-7.278c2.062-2.397,5.109-3.701,8.261-3.682c1.766,0.01,3.45,0.321,4.891,1.103
				C301.2,64.494,302.941,65.68,304.387,67.385z"/>
		</g>
	</g>
	<g>
		<path fill="#FFFFFF" d="M334.402,62.729c2.979,0,5.544,1.08,7.688,3.238c2.146,2.159,3.219,4.791,3.219,7.893
			c0,3.078-1.058,5.679-3.173,7.809c-2.118,2.129-4.687,3.196-7.708,3.196c-3.163,0-5.791-1.094-7.883-3.281
			c-2.096-2.188-3.14-4.786-3.14-7.793c0-2.016,0.488-3.869,1.462-5.559c0.975-1.69,2.313-3.031,4.021-4.02
			C330.596,63.224,332.432,62.729,334.402,62.729z M334.358,66.655c-1.951,0-3.592,0.679-4.92,2.035
			c-1.329,1.356-1.993,3.08-1.993,5.17c0,2.332,0.837,4.174,2.508,5.531c1.304,1.062,2.792,1.591,4.476,1.591
			c1.904,0,3.524-0.688,4.86-2.063c1.341-1.375,2.01-3.07,2.01-5.086c0-2.005-0.675-3.704-2.022-5.092
			C337.929,67.35,336.288,66.655,334.358,66.655z"/>
	</g>
</g>
</svg>
