<?xml version="1.0" encoding="utf-8"?>
<!-- Generator: Adobe Illustrator 16.0.0, SVG Export Plug-In . SVG Version: 6.00 Build 0)  -->
<svg version="1.2" baseProfile="tiny" id="Layer_1" xmlns="http://www.w3.org/2000/svg" xmlns:xlink="http://www.w3.org/1999/xlink"
	 x="0px" y="0px" width="239.301px" height="24px" viewBox="0 0 239.301 24" xml:space="preserve">
<g id="Layer_1_1_">
	<path fill="#30507F" d="M68.669,8.346V20.55c0,1.591-1.291,2.884-2.884,2.884H51.368c-1.592,0-2.883-1.293-2.883-2.884V6.132
		c0-1.593,1.291-2.884,2.883-2.884h12.203l-2.882,2.884h-9.321V20.55h14.417v-9.32L68.669,8.346z M66.456,2.404l-1.02,1.02
		l3.058,3.059l1.02-1.02L66.456,2.404z M68.495,0.365l-1.019,1.02l3.058,3.059l1.02-1.02L68.495,0.365z M55.243,13.62l3.058,3.06
		l9.175-9.177l-3.058-3.059L55.243,13.62z M54.252,17.667h2.883l-2.883-2.884V17.667z"/>
	<g>
		<path fill="#30507F" d="M13.387,3.547V2.021h1.578c0.233,0,0.423-0.19,0.423-0.423V0.4c0-0.233-0.189-0.423-0.423-0.423H8.317
			c-0.234,0-0.423,0.189-0.423,0.423v1.199c0,0.233,0.189,0.423,0.423,0.423h1.859v1.526C5.305,4.318,1.58,8.534,1.58,13.622
			c0,5.633,4.567,10.201,10.201,10.201c5.634,0,10.201-4.568,10.201-10.201C21.982,8.534,18.258,4.317,13.387,3.547z M11.781,21.848
			c-4.536,0-8.227-3.689-8.227-8.227s3.691-8.227,8.227-8.227c4.536,0,8.227,3.69,8.227,8.227S16.317,21.848,11.781,21.848z"/>
		<path fill="#30507F" d="M11.641,6.242v7.379h7.379C19.02,9.546,15.717,6.242,11.641,6.242z"/>
		<path fill="#30507F" d="M11.641,18.53h1.318v2.186h-1.318V18.53z M4.798,12.585h2.195v1.646H4.798V12.585z M16.881,16.53
			l1.201,0.69c0.106-0.188,0.205-0.39,0.295-0.589l-1.167-0.674L16.881,16.53z M14.699,18.462l0.832,1.429
			c0.188-0.115,0.37-0.238,0.546-0.371l-0.808-1.388L14.699,18.462z M8.739,19.895L8.17,19.562l0.834-1.431l0.569,0.329
			L8.739,19.895z M5.955,17.357l-0.328-0.568l1.438-0.83l0.33,0.571L5.955,17.357z M7.063,10.857l-1.438-0.831l0.33-0.571
			l1.438,0.831L7.063,10.857z M9.003,8.684L8.169,7.252l0.569-0.331l0.833,1.432L9.003,8.684z M2.934,4.011
			c-0.858,0.793-0.91,2.132-0.117,2.99l3.106-2.873C5.13,3.27,3.792,3.218,2.934,4.011z"/>
	</g>
	<g>
		<g>
			<path fill="#30507F" d="M79.186,14.357c-0.115-0.123-0.115-0.322,0-0.444l2.042-2.167c0.116-0.123,0.13-0.334,0.033-0.472
				l-0.206-0.29c-0.097-0.137-0.272-0.15-0.388-0.028l-2.833,2.958c-0.116,0.12-0.116,0.318,0,0.441l2.833,2.957
				c0.116,0.121,0.291,0.108,0.388-0.028l0.207-0.289c0.097-0.138,0.083-0.351-0.033-0.474L79.186,14.357z"/>
			<path fill="#30507F" d="M85.339,10.681h-0.38c-0.167,0-0.351,0.13-0.406,0.289l-2.202,6.332
				c-0.055,0.158,0.038,0.288,0.205,0.288h0.38c0.168,0,0.351-0.13,0.406-0.288l2.203-6.332
				C85.6,10.811,85.507,10.681,85.339,10.681z"/>
			<path fill="#30507F" d="M87.228,10.957c-0.116-0.122-0.291-0.108-0.389,0.028l-0.206,0.29c-0.097,0.137-0.083,0.349,0.033,0.472
				l2.042,2.167c0.115,0.122,0.115,0.322,0,0.445l-2.042,2.164c-0.116,0.123-0.13,0.336-0.033,0.474l0.206,0.289
				c0.098,0.138,0.272,0.149,0.389,0.028l2.832-2.957c0.117-0.123,0.117-0.321,0-0.441L87.228,10.957z"/>
			<path fill="#30507F" d="M94.475,2.494H73.419C72.637,2.494,72,3.13,72,3.913v17.175c0,0.782,0.637,1.419,1.419,1.419h21.056
				c0.783,0,1.42-0.637,1.42-1.419V3.913C95.895,3.13,95.258,2.494,94.475,2.494z M81.824,4.28c0-0.178,0.146-0.324,0.324-0.324
				h1.943c0.178,0,0.324,0.146,0.324,0.324v0.61c0,0.178-0.146,0.323-0.324,0.323h-1.943c-0.178,0-0.324-0.146-0.324-0.323V4.28z
				 M77.835,4.28c0-0.178,0.146-0.324,0.324-0.324h1.943c0.178,0,0.324,0.146,0.324,0.324v0.61c0,0.178-0.146,0.323-0.324,0.323
				h-1.943c-0.178,0-0.324-0.146-0.324-0.323V4.28z M73.947,4.28c0-0.178,0.146-0.324,0.324-0.324h1.943
				c0.178,0,0.324,0.146,0.324,0.324v0.61c0,0.178-0.146,0.323-0.324,0.323h-1.943c-0.178,0-0.324-0.146-0.324-0.323V4.28z
				 M94.759,20.9c0,0.188-0.154,0.339-0.343,0.339H73.479c-0.189,0-0.343-0.151-0.343-0.339V6.75c0-0.186,0.154-0.339,0.343-0.339
				h20.937c0.189,0,0.343,0.153,0.343,0.339V20.9L94.759,20.9z"/>
		</g>
	</g>
	<g>
		<path fill="#30507F" d="M117.359,2.957h-4.813c-1.135,0-2.72,0.657-3.522,1.459l-8.085,8.085c-0.802,0.802-0.802,2.115,0,2.917
			l6.022,6.021c0.803,0.804,2.115,0.804,2.917,0l8.085-8.086c0.802-0.801,1.459-2.386,1.459-3.521V5.021
			C119.422,3.886,118.494,2.957,117.359,2.957z M114.608,9.833c-1.139,0-2.062-0.923-2.062-2.062s0.923-2.063,2.062-2.063
			s2.063,0.924,2.063,2.063C116.672,8.91,115.748,9.833,114.608,9.833z M97.903,14.445l7.357,7.359
			c-0.779,0.41-1.772,0.29-2.426-0.365l-6.022-6.021c-0.802-0.802-0.802-2.114,0-2.917l8.085-8.085
			c0.802-0.802,2.387-1.459,3.521-1.459L97.903,13.475C97.635,13.742,97.635,14.18,97.903,14.445z"/>
	</g>
	<g>
		<g>
			<g>
				<g>
					<path fill="#30507F" d="M121.435,19.383c-0.805,0.805-0.805,2.108,0,2.914c0.793,0.794,2.121,0.793,2.915,0l6.765-6.768
						l-2.915-2.912L121.435,19.383z"/>
					<polygon fill="#30507F" points="138.344,6.843 141.291,5.32 142.833,2.338 141.395,0.899 138.414,2.443 136.888,5.387 
						133.304,8.976 134.757,10.432 					"/>
					<path fill="#30507F" d="M138.99,14.664l-0.278-0.027c-0.502,0-0.979,0.104-1.424,0.269l-8.458-8.459
						c0.165-0.445,0.268-0.922,0.268-1.425l-0.028-0.277c-0.194-2.857-3.272-4.669-5.86-3.432l2.738,2.738
						c0.145,0.144,0.243,0.314,0.31,0.495c0.18,0.486,0.082,1.055-0.31,1.448c-0.38,0.381-0.947,0.497-1.448,0.309
						c-0.18-0.068-0.35-0.165-0.495-0.311l-2.738-2.736c-1.238,2.588,0.574,5.667,3.432,5.86l0.278,0.027
						c0.502,0,0.979-0.103,1.424-0.267l8.457,8.458c-0.162,0.444-0.265,0.922-0.265,1.425l0.029,0.277
						c0.19,2.847,3.275,4.685,5.859,3.432l-2.738-2.738c-0.143-0.143-0.243-0.313-0.312-0.492c-0.18-0.485-0.083-1.057,0.312-1.448
						c0.377-0.382,0.951-0.499,1.449-0.31c0.18,0.066,0.352,0.162,0.493,0.31l2.738,2.737c0.258-0.539,0.412-1.133,0.412-1.768
						C142.833,16.576,141.134,14.811,138.99,14.664z"/>
				</g>
			</g>
		</g>
	</g>
	<g>
		<g>
			<rect x="147.761" y="3.787" fill="#30507F" width="7.467" height="16.429"/>
			<rect x="156.722" y="3.787" fill="#30507F" width="7.467" height="1.853"/>
			<rect x="156.722" y="6.699" fill="#30507F" width="7.467" height="1.859"/>
			<rect x="156.722" y="9.619" fill="#30507F" width="7.467" height="1.852"/>
			<rect x="156.722" y="12.531" fill="#30507F" width="7.467" height="1.853"/>
			<rect x="156.722" y="15.445" fill="#30507F" width="7.467" height="1.857"/>
			<rect x="156.722" y="18.363" fill="#30507F" width="7.467" height="1.853"/>
			<path fill="#30507F" d="M144.475,0.501v23h23v-23H144.475z M166.161,22.188H145.79V1.815h20.371V22.188z"/>
		</g>
	</g>
	<g>
		<path fill="#30507F" d="M186.709,14.301L186.709,14.301h-2.301v-4.6h2.301c3.951,0,6.059-4.885,3.343-7.759
			c-2.798-2.961-7.944-0.915-7.944,3.158v2.301h-4.6v-2.3c0-3.951-4.885-6.059-7.759-3.343c-2.961,2.798-0.915,7.944,3.158,7.944
			h2.301v4.6h-2.301l0,0l0,0c-3.95,0-6.06,4.886-3.343,7.759c2.797,2.959,7.944,0.916,7.944-3.156l0,0v-2.301h4.6v2.295
			c0,3.951,4.881,6.065,7.759,3.348C192.828,19.447,190.781,14.301,186.709,14.301z M186.709,2.801c2.966,0,2.966,4.601,0,4.601
			h-2.301V5.101C184.408,3.831,185.438,2.801,186.709,2.801z M170.608,5.101c0-2.966,4.601-2.966,4.601,0v2.301h-2.301
			C171.639,7.401,170.608,6.371,170.608,5.101z M172.908,21.201c-2.966,0-2.966-4.6,0-4.6l0,0h2.301v2.301
			C175.209,20.17,174.179,21.201,172.908,21.201z M177.509,14.301v-4.6h4.6v4.6H177.509z M186.709,21.201
			c-1.271,0-2.301-1.031-2.301-2.299l0,0v-2.301h2.3C189.674,16.602,189.674,21.201,186.709,21.201z"/>
	</g>
	<g>
		<g>
			<g>
				<path fill="#30507F" d="M212.861,0.5h-18.013c-1.371,0-2.493,1.123-2.493,2.494v18.012c0,1.372,1.122,2.494,2.493,2.494h18.011
					c1.373,0,2.493-1.124,2.493-2.494V2.994C215.354,1.623,214.231,0.5,212.861,0.5z M212.212,2.562
					c0.648,0,1.177,0.526,1.177,1.177c0,0.651-0.526,1.177-1.177,1.177c-0.652,0-1.178-0.527-1.178-1.177
					C211.034,3.089,211.562,2.562,212.212,2.562z M208.54,2.56c0.649,0,1.178,0.527,1.178,1.178c0,0.651-0.528,1.178-1.178,1.178
					c-0.651,0-1.178-0.527-1.178-1.178C207.362,3.087,207.89,2.56,208.54,2.56z M213.468,21.361h-19.224V6.605h19.224V21.361z"/>
				<rect x="198.299" y="15.213" fill="#30507F" width="3.677" height="3.678"/>
				<rect x="205.884" y="15.213" fill="#30507F" width="3.678" height="3.678"/>
				<rect x="198.299" y="9.238" fill="#30507F" width="3.677" height="3.674"/>
				<rect x="205.884" y="9.238" fill="#30507F" width="3.678" height="3.674"/>
			</g>
		</g>
	</g>
	<g id="Settings">
		<g>
			<path fill="#30507F" d="M238.71,10.779c-0.035-0.309-0.396-0.541-0.707-0.541c-1.009,0-1.903-0.592-2.278-1.508
				c-0.383-0.938-0.136-2.03,0.615-2.72c0.236-0.216,0.266-0.578,0.067-0.829c-0.517-0.655-1.103-1.248-1.743-1.76
				c-0.25-0.201-0.618-0.173-0.836,0.067c-0.655,0.726-1.833,0.996-2.743,0.617c-0.947-0.399-1.544-1.358-1.486-2.389
				c0.02-0.323-0.217-0.605-0.539-0.643c-0.822-0.095-1.651-0.098-2.475-0.006c-0.319,0.035-0.556,0.31-0.545,0.629
				c0.035,1.02-0.568,1.963-1.507,2.347c-0.898,0.367-2.068,0.1-2.723-0.62c-0.216-0.237-0.578-0.266-0.83-0.07
				c-0.659,0.517-1.259,1.109-1.779,1.759c-0.203,0.253-0.174,0.619,0.065,0.837c0.766,0.693,1.013,1.796,0.615,2.744
				c-0.38,0.904-1.318,1.487-2.394,1.487c-0.349-0.012-0.598,0.223-0.636,0.54c-0.097,0.826-0.098,1.668-0.005,2.501
				c0.035,0.312,0.406,0.541,0.722,0.541c0.958-0.023,1.878,0.568,2.264,1.508c0.384,0.938,0.137,2.03-0.615,2.721
				c-0.235,0.216-0.266,0.576-0.067,0.828c0.512,0.651,1.098,1.244,1.74,1.762c0.252,0.203,0.619,0.174,0.838-0.066
				c0.658-0.729,1.835-0.996,2.742-0.617c0.949,0.397,1.546,1.356,1.488,2.389c-0.02,0.322,0.218,0.605,0.539,0.643
				c0.421,0.049,0.844,0.073,1.268,0.073c0.402,0,0.805-0.021,1.208-0.065c0.318-0.035,0.555-0.312,0.544-0.631
				c-0.037-1.02,0.568-1.963,1.505-2.346c0.905-0.37,2.07-0.1,2.725,0.619c0.218,0.236,0.577,0.266,0.83,0.068
				c0.658-0.516,1.257-1.106,1.779-1.758c0.203-0.253,0.175-0.619-0.065-0.837c-0.766-0.692-1.014-1.797-0.616-2.743
				c0.374-0.894,1.278-1.492,2.25-1.492l0.137,0.004c0.315,0.025,0.605-0.217,0.644-0.539
				C238.802,12.454,238.803,11.613,238.71,10.779z M227.796,15.693c-2.022,0-3.669-1.646-3.669-3.669s1.646-3.669,3.669-3.669
				s3.67,1.646,3.67,3.669S229.82,15.693,227.796,15.693z"/>
		</g>
	</g>
	<g>
		<g>
			<rect x="27.315" y="8.053" fill="#30507F" width="2.292" height="2.219"/>
			<rect x="27.315" y="11.775" fill="#30507F" width="2.292" height="2.221"/>
			<rect x="30.65" y="8.053" fill="#30507F" width="9.067" height="2.219"/>
			<rect x="30.65" y="11.775" fill="#30507F" width="9.067" height="2.221"/>
			<path fill="#30507F" d="M25.621,20.49V6.571h17.432v7.308c0.544-0.066,1.081-0.041,1.62,0.061V2.519
				c0-0.597-0.485-1.081-1.08-1.081H25.081C24.484,1.438,24,1.921,24,2.519v18.514c0,0.596,0.484,1.08,1.081,1.08h13.528
				c-0.622-0.625-1.087-1.223-1.374-1.622L25.621,20.49L25.621,20.49z"/>
			<path fill="#30507F" d="M42.514,14.799c-2.998,0-5.43,3.819-5.43,3.819c1.171,1.782,3.146,3.817,5.43,3.817
				c2.283,0,4.257-2.035,5.427-3.817C47.941,18.618,45.512,14.799,42.514,14.799z M42.514,20.445c-1.537,0-2.389-1.868-1.38-3.028
				c1.087-1.251,3.208-0.454,3.208,1.201C44.342,19.626,43.523,20.445,42.514,20.445z"/>
		</g>
	</g>
</g>
</svg>
