<?xml version="1.0" encoding="utf-8"?>
<!-- Generator: Adobe Illustrator 16.0.0, SVG Export Plug-In . SVG Version: 6.00 Build 0)  -->
<!DOCTYPE svg PUBLIC "-//W3C//DTD SVG 1.1 Tiny//EN" "http://www.w3.org/Graphics/SVG/1.1/DTD/svg11-tiny.dtd">
<svg version="1.1" baseProfile="tiny" id="Layer_1" xmlns="http://www.w3.org/2000/svg" xmlns:xlink="http://www.w3.org/1999/xlink"
	 x="0px" y="0px" width="640px" height="24px" viewBox="0 0 640 24" xml:space="preserve">
<g id="Layer_1_1_">
	<path fill="#446EA0" d="M68.669,8.346V20.55c0,1.591-1.291,2.884-2.884,2.884H51.368c-1.592,0-2.883-1.293-2.883-2.884V6.132
		c0-1.593,1.291-2.884,2.883-2.884h12.203l-2.882,2.884h-9.321V20.55h14.417v-9.32L68.669,8.346z M66.456,2.404l-1.02,1.02
		l3.058,3.059l1.02-1.02L66.456,2.404z M68.495,0.365l-1.019,1.02l3.058,3.059l1.02-1.02L68.495,0.365z M55.243,13.62l3.058,3.06
		l9.175-9.177l-3.058-3.059L55.243,13.62z M54.252,17.667h2.883l-2.883-2.884V17.667z"/>
	<g>
		<path fill="#446EA0" d="M13.387,3.547V2.021h1.578c0.233,0,0.423-0.19,0.423-0.423V0.4c0-0.233-0.189-0.423-0.423-0.423H8.317
			c-0.234,0-0.423,0.189-0.423,0.423v1.199c0,0.233,0.189,0.423,0.423,0.423h1.859v1.526C5.305,4.318,1.58,8.534,1.58,13.622
			c0,5.633,4.567,10.201,10.201,10.201c5.634,0,10.201-4.568,10.201-10.201C21.982,8.534,18.258,4.317,13.387,3.547z M11.781,21.848
			c-4.536,0-8.227-3.689-8.227-8.227s3.691-8.227,8.227-8.227c4.536,0,8.227,3.69,8.227,8.227S16.317,21.848,11.781,21.848z"/>
		<path fill="#446EA0" d="M11.641,6.242v7.379h7.379C19.02,9.546,15.717,6.242,11.641,6.242z"/>
		<path fill="#446EA0" d="M11.641,18.53h1.318v2.186h-1.318V18.53z M4.798,12.585h2.195v1.646H4.798V12.585z M16.881,16.53
			l1.201,0.69c0.106-0.188,0.205-0.39,0.295-0.589l-1.167-0.674L16.881,16.53z M14.699,18.462l0.832,1.429
			c0.188-0.115,0.37-0.238,0.546-0.371l-0.808-1.388L14.699,18.462z M8.739,19.895L8.17,19.562l0.834-1.431l0.569,0.329
			L8.739,19.895z M5.955,17.357l-0.328-0.568l1.438-0.83l0.33,0.571L5.955,17.357z M7.063,10.857l-1.438-0.831l0.33-0.571
			l1.438,0.831L7.063,10.857z M9.003,8.684L8.169,7.252l0.569-0.331l0.833,1.432L9.003,8.684z M2.934,4.011
			c-0.858,0.793-0.91,2.132-0.117,2.99l3.106-2.873C5.13,3.27,3.792,3.218,2.934,4.011z"/>
	</g>
	<g>
		<g>
			<path fill="#446EA0" d="M79.186,14.357c-0.115-0.123-0.115-0.322,0-0.444l2.042-2.167c0.116-0.123,0.13-0.334,0.033-0.472
				l-0.206-0.29c-0.097-0.137-0.272-0.15-0.388-0.028l-2.833,2.958c-0.116,0.12-0.116,0.318,0,0.441l2.833,2.957
				c0.116,0.121,0.291,0.108,0.388-0.028l0.207-0.289c0.097-0.138,0.083-0.351-0.033-0.474L79.186,14.357z"/>
			<path fill="#446EA0" d="M85.339,10.681h-0.38c-0.167,0-0.351,0.13-0.406,0.289l-2.202,6.332
				c-0.055,0.158,0.038,0.288,0.205,0.288h0.38c0.168,0,0.351-0.13,0.406-0.288l2.203-6.332
				C85.6,10.811,85.507,10.681,85.339,10.681z"/>
			<path fill="#446EA0" d="M87.228,10.957c-0.116-0.122-0.291-0.108-0.389,0.028l-0.206,0.29c-0.097,0.137-0.083,0.349,0.033,0.472
				l2.042,2.167c0.115,0.122,0.115,0.322,0,0.445l-2.042,2.164c-0.116,0.123-0.13,0.336-0.033,0.474l0.206,0.289
				c0.098,0.138,0.272,0.149,0.389,0.028l2.832-2.957c0.117-0.123,0.117-0.321,0-0.441L87.228,10.957z"/>
			<path fill="#446EA0" d="M94.475,2.494H73.419C72.637,2.494,72,3.13,72,3.913v17.175c0,0.782,0.637,1.419,1.419,1.419h21.056
				c0.783,0,1.42-0.637,1.42-1.419V3.913C95.895,3.13,95.258,2.494,94.475,2.494z M81.824,4.28c0-0.178,0.146-0.324,0.324-0.324
				h1.943c0.178,0,0.324,0.146,0.324,0.324v0.61c0,0.178-0.146,0.323-0.324,0.323h-1.943c-0.178,0-0.324-0.146-0.324-0.323V4.28z
				 M77.835,4.28c0-0.178,0.146-0.324,0.324-0.324h1.943c0.178,0,0.324,0.146,0.324,0.324v0.61c0,0.178-0.146,0.323-0.324,0.323
				h-1.943c-0.178,0-0.324-0.146-0.324-0.323V4.28z M73.947,4.28c0-0.178,0.146-0.324,0.324-0.324h1.943
				c0.178,0,0.324,0.146,0.324,0.324v0.61c0,0.178-0.146,0.323-0.324,0.323h-1.943c-0.178,0-0.324-0.146-0.324-0.323V4.28z
				 M94.759,20.9c0,0.188-0.154,0.339-0.343,0.339H73.479c-0.189,0-0.343-0.151-0.343-0.339V6.75c0-0.186,0.154-0.339,0.343-0.339
				h20.937c0.189,0,0.343,0.153,0.343,0.339V20.9L94.759,20.9z"/>
		</g>
	</g>
	<g>
		<path fill="#446EA0" d="M117.359,2.957h-4.813c-1.135,0-2.72,0.657-3.522,1.459l-8.085,8.085c-0.802,0.802-0.802,2.115,0,2.917
			l6.022,6.021c0.803,0.804,2.115,0.804,2.917,0l8.085-8.086c0.802-0.801,1.459-2.386,1.459-3.521V5.021
			C119.422,3.886,118.494,2.957,117.359,2.957z M114.608,9.833c-1.139,0-2.062-0.923-2.062-2.062s0.923-2.063,2.062-2.063
			s2.063,0.924,2.063,2.063C116.672,8.91,115.748,9.833,114.608,9.833z M97.903,14.445l7.357,7.359
			c-0.779,0.41-1.772,0.29-2.426-0.365l-6.022-6.021c-0.802-0.802-0.802-2.114,0-2.917l8.085-8.085
			c0.802-0.802,2.387-1.459,3.521-1.459L97.903,13.475C97.635,13.742,97.635,14.18,97.903,14.445z"/>
	</g>
	<g>
		<g>
			<g>
				<g>
					<path fill="#446EA0" d="M121.435,19.383c-0.805,0.805-0.805,2.108,0,2.914c0.402,0.402,0.93,0.604,1.458,0.604
						c0.527,0,1.055-0.2,1.458-0.604l6.765-6.768l-2.915-2.912L121.435,19.383z"/>
					<polygon fill="#446EA0" points="138.344,6.843 141.291,5.32 142.833,2.338 141.395,0.899 138.414,2.443 136.888,5.387 
						133.304,8.976 134.757,10.432 					"/>
					<path fill="#446EA0" d="M138.99,14.664l-0.278-0.027c-0.502,0-0.979,0.104-1.424,0.269l-8.458-8.459
						c0.165-0.445,0.268-0.922,0.268-1.425l-0.028-0.277c-0.146-2.145-1.912-3.844-4.094-3.844c-0.634,0-1.229,0.155-1.767,0.412
						l2.738,2.738c0.145,0.144,0.243,0.314,0.31,0.495c0.18,0.486,0.082,1.055-0.31,1.448c-0.268,0.268-0.619,0.402-0.971,0.402
						c-0.162,0-0.323-0.036-0.477-0.093c-0.18-0.068-0.35-0.165-0.495-0.311l-2.738-2.736c-0.257,0.537-0.412,1.132-0.412,1.767
						c0,2.182,1.7,3.948,3.844,4.094l0.278,0.027c0.502,0,0.979-0.103,1.424-0.267l8.457,8.458
						c-0.162,0.445-0.265,0.922-0.265,1.425l0.029,0.277c0.143,2.146,1.911,3.844,4.092,3.844c0.635,0,1.231-0.151,1.767-0.412
						l-2.738-2.737c-0.143-0.144-0.243-0.314-0.312-0.492c-0.18-0.486-0.083-1.057,0.312-1.449c0.265-0.27,0.62-0.402,0.971-0.402
						c0.162,0,0.321,0.033,0.478,0.094c0.18,0.066,0.352,0.162,0.493,0.31l2.738,2.737c0.258-0.538,0.412-1.133,0.412-1.768
						C142.833,16.576,141.134,14.811,138.99,14.664z"/>
				</g>
			</g>
		</g>
	</g>
	<g>
		<path fill="#446EA0" d="M161.434,7.501c0.412-0.292,0.807-0.619,1.169-0.98c0.759-0.76,1.267-1.694,1.43-2.63
			c0.179-1.027-0.083-1.98-0.719-2.616c-0.507-0.506-1.193-0.774-1.985-0.774c-1.128,0-2.316,0.541-3.26,1.485
			c-1.511,1.511-2.392,3.596-2.865,5.085c-0.351-1.496-1.05-3.515-2.41-4.874c-0.729-0.729-1.662-1.104-2.542-1.104
			c-0.72,0-1.404,0.25-1.915,0.761c-1.136,1.136-0.983,3.131,0.342,4.457c0.473,0.473,1.025,0.865,1.607,1.191h-4.932v5.818h1.455
			V23.5h17.454V13.32h1.455V7.501H161.434L161.434,7.501z M159.226,3.143c0.63-0.63,1.417-1.006,2.104-1.006
			c0.243,0,0.584,0.051,0.828,0.295c0.591,0.591,0.259,1.961-0.711,2.932c-0.999,0.999-2.342,1.686-3.51,2.137h-1.151
			C157.207,6.194,157.968,4.4,159.226,3.143z M149.217,3.886c-0.016-0.207-0.001-0.597,0.277-0.875
			c0.233-0.232,0.541-0.282,0.758-0.282l0,0c0.483,0,0.988,0.228,1.385,0.625c0.77,0.77,1.404,1.995,1.833,3.542
			c0.011,0.042,0.023,0.083,0.034,0.125c-0.041-0.011-0.083-0.022-0.125-0.034c-1.548-0.43-2.772-1.063-3.542-1.833
			C149.477,4.793,149.251,4.332,149.217,3.886z M154.082,22.047h-5.818v-9.455h5.818V22.047z M154.082,11.865h-7.272V8.956h7.272
			V11.865z M162.809,22.047h-5.818v-9.455h5.818V22.047z M164.263,11.865h-7.272V8.956h7.272V11.865z"/>
	</g>
	<g>
		<g>
			<rect x="387.786" y="3.787" fill="#446EA0" width="7.467" height="16.429"/>
			<rect x="396.747" y="3.787" fill="#446EA0" width="7.467" height="1.853"/>
			<rect x="396.747" y="6.699" fill="#446EA0" width="7.467" height="1.859"/>
			<rect x="396.747" y="9.619" fill="#446EA0" width="7.467" height="1.852"/>
			<rect x="396.747" y="12.531" fill="#446EA0" width="7.467" height="1.853"/>
			<rect x="396.747" y="15.445" fill="#446EA0" width="7.467" height="1.857"/>
			<rect x="396.747" y="18.363" fill="#446EA0" width="7.467" height="1.853"/>
			<path fill="#446EA0" d="M384.5,0.501v23h23v-23H384.5z M406.186,22.188h-20.371V1.815h20.371V22.188z"/>
		</g>
	</g>
	<g>
		<path fill="#446EA0" d="M186.709,14.301L186.709,14.301h-2.301v-4.6h2.301c2.54,0,4.6-2.06,4.6-4.601c0-2.54-2.06-4.6-4.6-4.6
			c-2.541,0-4.601,2.06-4.601,4.6v2.301h-4.6v-2.3c0-2.54-2.06-4.6-4.601-4.6c-2.54,0-4.6,2.06-4.6,4.6
			c0,2.541,2.06,4.601,4.6,4.601h2.301v4.6h-2.301l0,0l0,0c-2.54,0-4.6,2.062-4.6,4.603c0,2.539,2.06,4.598,4.6,4.598
			c2.541,0,4.601-2.059,4.601-4.598l0,0v-2.301h4.6v2.295c0,0.002,0,0.004,0,0.006c0,2.539,2.06,4.598,4.6,4.598
			s4.6-2.059,4.6-4.598C191.308,16.361,189.249,14.301,186.709,14.301z M186.709,2.801c1.27,0,2.3,1.03,2.3,2.3
			c0,1.271-1.03,2.301-2.3,2.301h-2.301V5.101C184.408,3.831,185.438,2.801,186.709,2.801z M170.608,5.101c0-1.27,1.03-2.3,2.3-2.3
			c1.271,0,2.301,1.03,2.301,2.3v2.301h-2.301C171.639,7.401,170.608,6.371,170.608,5.101z M172.908,21.201
			c-1.27,0-2.3-1.031-2.3-2.299c0-1.271,1.03-2.301,2.3-2.301l0,0h2.301v2.301C175.209,20.17,174.179,21.201,172.908,21.201z
			 M177.509,14.301v-4.6h4.6v4.6H177.509z M186.709,21.201c-1.271,0-2.301-1.031-2.301-2.299l0,0v-2.301h2.3
			c1.27,0,2.3,1.028,2.3,2.301C189.008,20.17,187.979,21.201,186.709,21.201z"/>
	</g>
	<g>
		<g>
			<g>
				<path fill="#446EA0" d="M212.861,0.5h-18.013c-1.371,0-2.493,1.123-2.493,2.494v18.012c0,1.372,1.122,2.494,2.493,2.494h18.011
					c1.373,0,2.493-1.124,2.493-2.494V2.994C215.354,1.623,214.231,0.5,212.861,0.5z M212.212,2.562
					c0.648,0,1.177,0.526,1.177,1.177c0,0.651-0.526,1.177-1.177,1.177c-0.652,0-1.178-0.527-1.178-1.177
					C211.034,3.089,211.562,2.562,212.212,2.562z M208.54,2.56c0.649,0,1.178,0.527,1.178,1.178c0,0.651-0.528,1.178-1.178,1.178
					c-0.651,0-1.178-0.527-1.178-1.178C207.362,3.087,207.89,2.56,208.54,2.56z M213.468,21.361h-19.224V6.605h19.224V21.361z"/>
				<rect x="198.299" y="15.213" fill="#446EA0" width="3.677" height="3.678"/>
				<rect x="205.884" y="15.213" fill="#446EA0" width="3.678" height="3.678"/>
				<rect x="198.299" y="9.238" fill="#446EA0" width="3.677" height="3.674"/>
				<rect x="205.884" y="9.238" fill="#446EA0" width="3.678" height="3.674"/>
			</g>
		</g>
	</g>
	<g>
		<path fill="#446EA0" d="M278.435,5.69c1.091,0.683,1.855,1.84,1.994,3.183c0.445,0.208,0.937,0.327,1.461,0.327
			c1.909,0,3.457-1.548,3.457-3.457c0-1.91-1.548-3.458-3.457-3.458C279.998,2.286,278.464,3.806,278.435,5.69z M276.17,12.771
			c1.909,0,3.457-1.548,3.457-3.458s-1.548-3.457-3.457-3.457c-1.91,0-3.459,1.548-3.459,3.457S274.26,12.771,276.17,12.771z
			 M277.636,13.006h-2.934c-2.441,0-4.427,1.986-4.427,4.428v3.588l0.009,0.057l0.248,0.078c2.329,0.727,4.353,0.97,6.018,0.97
			c3.255,0,5.14-0.927,5.257-0.987l0.23-0.115h0.025v-3.59C282.063,14.992,280.077,13.006,277.636,13.006z M283.357,9.436h-2.912
			c-0.032,1.165-0.528,2.214-1.315,2.969c2.169,0.646,3.757,2.657,3.757,5.034v1.105c2.875-0.105,4.531-0.921,4.641-0.977
			l0.23-0.116h0.025v-3.589C287.784,11.422,285.797,9.436,283.357,9.436z M270.103,9.201c0.677,0,1.306-0.197,1.839-0.533
			c0.169-1.105,0.762-2.072,1.608-2.729c0.003-0.065,0.01-0.128,0.01-0.194c0-1.91-1.549-3.458-3.457-3.458
			c-1.91,0-3.458,1.548-3.458,3.458C266.645,7.652,268.192,9.201,270.103,9.201z M273.208,12.404
			c-0.783-0.751-1.278-1.794-1.314-2.952c-0.108-0.008-0.215-0.017-0.325-0.017h-2.934c-2.441,0-4.427,1.986-4.427,4.428v3.589
			l0.009,0.055l0.247,0.078c1.869,0.583,3.537,0.853,4.986,0.937v-1.082C269.45,15.062,271.037,13.051,273.208,12.404z"/>
	</g>
	<g>
		<g>
			<path fill="#446EA0" d="M309.621,17.518c0,0.229-0.194,0.418-0.435,0.418h-5.894c-2.098,0-2.859,0.945-2.859,0.945l-0.097,0.131
				l-0.045,0.062c-0.001,0-0.001,0-0.001,0c-0.2,0.271-0.494,0.002-0.495,0l-0.136-0.169c-0.101-0.121-0.872-0.97-2.736-0.97h-6.078
				c-0.24,0-0.433-0.189-0.433-0.42V4.976c0-0.232,0.194-0.418,0.433-0.418h4.718c3.51,0,3.842,1.993,3.865,2.572v8.722
				c0,0.633,0.301,0.752,0.472,0.769h0.254c0.173-0.017,0.449-0.12,0.449-0.613V7.018H300.6c0.027-0.725,0.309-2.459,2.42-2.459
				h6.165c0.241,0,0.435,0.187,0.435,0.418L309.621,17.518L309.621,17.518z M311.183,7.018h-0.021
				c-0.396,0.002-0.458-0.342-0.464-0.502v-2.5c0-0.267-0.217-0.482-0.483-0.482h-7.15c-1.794,0-2.463,0.664-2.629,0.874
				l-0.045,0.063l0,0l-0.142,0.194l0,0c-0.189,0.261-0.355,0.149-0.435,0.064l-0.271-0.338l-0.134-0.161
				c-0.225-0.237-0.811-0.698-1.973-0.698h-7.617c-0.267,0-0.483,0.216-0.483,0.483v2.469c0,0.432-0.234,0.519-0.378,0.533h-0.107
				c-0.117,0.007-0.39,0.076-0.39,0.577v11.768c0,0.287,0.234,0.521,0.522,0.521h6.952c2.218,0,3.185,0.837,3.475,1.156l0.165,0.205
				l0,0c0,0,0.444,0.502,0.911,0l0,0l0.097-0.113v0.002l0.001-0.002l0.124-0.145c0.003-0.004,0.033-0.038,0.077-0.084
				c0.37-0.358,1.294-1.021,3.103-1.021h7.165c0.289,0,0.522-0.233,0.522-0.522V7.481C311.574,7.056,311.265,7.02,311.183,7.018
				L311.183,7.018z"/>
		</g>
	</g>
	<g>
		<g>
			<path fill="#446EA0" d="M312,2.251V21.75h24V2.251H312z M334.5,20.251h-21v-15h21V20.251z"/>
			<rect x="325.5" y="8.251" fill="#446EA0" width="7.5" height="1.5"/>
			<rect x="325.5" y="11.251" fill="#446EA0" width="7.5" height="1.499"/>
			<rect x="325.5" y="14.25" fill="#446EA0" width="4.5" height="1.5"/>
			<rect x="315" y="8.251" fill="#446EA0" width="7.5" height="7.499"/>
		</g>
	</g>
	<g id="Settings">
		<g>
			<path fill="#446EA0" d="M358.979,10.779c-0.035-0.309-0.396-0.541-0.707-0.541c-1.01,0-1.903-0.592-2.278-1.508
				c-0.384-0.938-0.136-2.03,0.614-2.72c0.236-0.216,0.267-0.578,0.067-0.829c-0.517-0.655-1.103-1.248-1.743-1.76
				c-0.25-0.201-0.617-0.173-0.836,0.067c-0.654,0.726-1.833,0.996-2.742,0.617c-0.947-0.399-1.545-1.358-1.486-2.389
				c0.02-0.323-0.217-0.605-0.539-0.643c-0.822-0.095-1.651-0.098-2.475-0.006c-0.319,0.035-0.557,0.31-0.545,0.629
				c0.034,1.02-0.568,1.963-1.508,2.347c-0.898,0.367-2.068,0.1-2.723-0.62c-0.217-0.237-0.578-0.266-0.83-0.07
				c-0.659,0.517-1.26,1.109-1.779,1.759c-0.203,0.253-0.174,0.619,0.065,0.837c0.766,0.693,1.013,1.796,0.614,2.744
				c-0.379,0.904-1.317,1.487-2.394,1.487c-0.349-0.012-0.599,0.223-0.636,0.54c-0.098,0.826-0.098,1.668-0.006,2.501
				c0.035,0.312,0.406,0.541,0.723,0.541c0.958-0.023,1.878,0.568,2.264,1.508c0.385,0.938,0.137,2.03-0.615,2.721
				c-0.234,0.216-0.266,0.576-0.066,0.828c0.512,0.651,1.098,1.244,1.74,1.762c0.252,0.203,0.619,0.174,0.838-0.066
				c0.658-0.729,1.835-0.996,2.742-0.617c0.949,0.397,1.546,1.356,1.488,2.389c-0.021,0.322,0.217,0.605,0.539,0.643
				c0.42,0.049,0.844,0.073,1.268,0.073c0.402,0,0.805-0.021,1.208-0.065c0.317-0.035,0.555-0.312,0.544-0.631
				c-0.037-1.02,0.568-1.963,1.505-2.346c0.905-0.37,2.069-0.1,2.726,0.619c0.217,0.236,0.576,0.266,0.83,0.068
				c0.657-0.516,1.256-1.106,1.778-1.758c0.203-0.253,0.175-0.619-0.065-0.837c-0.766-0.692-1.014-1.797-0.615-2.743
				c0.373-0.894,1.277-1.492,2.25-1.492l0.137,0.004c0.314,0.025,0.605-0.217,0.645-0.539
				C359.068,12.454,359.07,11.613,358.979,10.779z M348.062,15.693c-2.021,0-3.668-1.646-3.668-3.669s1.646-3.669,3.668-3.669
				c2.023,0,3.67,1.646,3.67,3.669S350.087,15.693,348.062,15.693z"/>
		</g>
	</g>
	<g>
		<g>
			<path fill="#446EA0" d="M374.068,15.003c1.427-0.603,2.553-1.419,3.377-2.455c0.826-1.036,1.238-2.165,1.238-3.385
				c0-1.22-0.412-2.348-1.238-3.384c-0.824-1.036-1.95-1.855-3.377-2.456c-1.426-0.601-2.979-0.902-4.655-0.902
				s-3.228,0.301-4.654,0.902c-1.426,0.601-2.552,1.42-3.377,2.457c-0.825,1.035-1.237,2.163-1.237,3.383
				c0,1.044,0.312,2.028,0.936,2.951c0.622,0.921,1.479,1.698,2.566,2.329c-0.088,0.212-0.178,0.404-0.27,0.58
				c-0.093,0.175-0.203,0.345-0.33,0.506c-0.127,0.164-0.227,0.291-0.296,0.383s-0.185,0.222-0.343,0.388
				c-0.157,0.168-0.26,0.277-0.303,0.329c0-0.009-0.019,0.012-0.053,0.061c-0.035,0.049-0.056,0.068-0.06,0.064
				c-0.007-0.005-0.022,0.02-0.054,0.066c-0.03,0.048-0.047,0.072-0.047,0.072l-0.031,0.065c-0.014,0.024-0.021,0.052-0.027,0.078
				c-0.004,0.024-0.006,0.055-0.006,0.085c0,0.031,0.004,0.061,0.014,0.086c0.018,0.113,0.067,0.206,0.151,0.275
				c0.082,0.07,0.172,0.105,0.271,0.105h0.039c0.438-0.062,0.815-0.132,1.133-0.21c1.352-0.353,2.571-0.913,3.66-1.687
				c0.789,0.141,1.562,0.211,2.316,0.211C371.09,15.905,372.643,15.604,374.068,15.003z M366.701,13.902l-0.579,0.408
				c-0.245,0.168-0.519,0.34-0.815,0.515l0.461-1.105l-1.277-0.737c-0.844-0.49-1.497-1.07-1.963-1.738
				c-0.465-0.667-0.697-1.361-0.697-2.081c0-0.896,0.346-1.733,1.033-2.515c0.689-0.782,1.617-1.4,2.785-1.857
				c1.166-0.457,2.422-0.685,3.766-0.685s2.6,0.229,3.768,0.685c1.166,0.457,2.096,1.075,2.784,1.857
				c0.688,0.781,1.033,1.619,1.033,2.515s-0.345,1.734-1.033,2.516c-0.688,0.781-1.618,1.399-2.784,1.855
				c-1.168,0.458-2.424,0.686-3.768,0.686c-0.658,0-1.329-0.062-2.016-0.186L366.701,13.902z"/>
			<path fill="#446EA0" d="M382.805,15.489c0.625-0.919,0.937-1.901,0.937-2.956c0-1.079-0.329-2.089-0.987-3.028
				s-1.554-1.721-2.688-2.344c0.201,0.659,0.304,1.326,0.304,2.002c0,1.176-0.294,2.291-0.882,3.344
				c-0.59,1.054-1.432,1.983-2.529,2.792c-1.018,0.737-2.177,1.303-3.477,1.698c-1.299,0.396-2.654,0.593-4.068,0.593
				c-0.264,0-0.648-0.018-1.159-0.053c1.767,1.158,3.837,1.738,6.216,1.738c0.756,0,1.527-0.069,2.318-0.211
				c1.088,0.772,2.309,1.334,3.66,1.686c0.316,0.08,0.693,0.148,1.132,0.211c0.106,0.01,0.202-0.021,0.29-0.092
				c0.089-0.069,0.146-0.166,0.171-0.288c-0.004-0.054,0-0.083,0.015-0.087c0.012-0.004,0.01-0.033-0.007-0.086
				c-0.019-0.053-0.026-0.079-0.026-0.079l-0.032-0.065c-0.011-0.018-0.024-0.041-0.048-0.072c-0.021-0.029-0.039-0.053-0.053-0.064
				c-0.013-0.014-0.031-0.036-0.059-0.066c-0.025-0.029-0.044-0.05-0.053-0.059c-0.045-0.053-0.146-0.163-0.303-0.329
				c-0.158-0.167-0.272-0.297-0.343-0.389c-0.071-0.093-0.17-0.22-0.297-0.382c-0.127-0.163-0.237-0.332-0.329-0.508
				s-0.183-0.369-0.271-0.58C381.326,17.184,382.184,16.408,382.805,15.489z"/>
		</g>
	</g>
	<g>
		<path fill="#446EA0" d="M225.125,4.812H228V6.25h-2.875V4.812z M229.438,4.812h2.875V6.25h-2.875V4.812z M236.625,4.812v5.75
			h-4.312V9.125h2.875V6.25h-1.438V4.812H236.625z M223.688,9.125h2.875v1.438h-2.875V9.125L223.688,9.125z M228.001,9.125h2.875
			v1.438h-2.875V9.125z M220.813,6.25v2.875h1.438v1.438h-2.875v-5.75h4.313V6.25H220.813z M225.125,13.438H228v1.438h-2.875V13.438
			z M229.438,13.438h2.875v1.438h-2.875V13.438z M236.625,13.438v5.75h-4.312V17.75h2.875v-2.875h-1.438v-1.438H236.625
			L236.625,13.438z M223.688,17.75h2.875v1.438h-2.875V17.75L223.688,17.75z M228.001,17.75h2.875v1.438h-2.875V17.75z
			 M220.813,14.875v2.875h1.438v1.438h-2.875v-5.75h4.313v1.438L220.813,14.875L220.813,14.875z M238.063,1.937h-20.125v20.125
			h20.125V1.937z M239.5,0.5L239.5,0.5v23h-23v-23H239.5z"/>
	</g>
	<g>
		<path fill="#446EA0" d="M261.972,0.53h-19.96c-1.044,0-1.886,0.861-1.886,1.917v19.168c0,1.058,0.842,1.914,1.886,1.914h19.96
			c1.039,0,1.887-0.856,1.887-1.914V2.448C263.859,1.392,263.011,0.53,261.972,0.53z M243.207,1.907h17.57
			c0.916,0,1.661,0.757,1.661,1.688V7.39h-20.893V3.594C241.545,2.663,242.287,1.907,243.207,1.907z M256.185,9.299v12.855h-8.519
			V9.299H256.185z M241.545,20.468V9.299h4.281v12.855h-2.62C242.287,22.155,241.545,21.398,241.545,20.468z M260.776,22.155h-2.75
			V9.299h4.412v11.169C262.437,21.398,261.692,22.155,260.776,22.155z"/>
	</g>
	<g>
		<g>
			<rect x="27.315" y="8.053" fill="#446EA0" width="2.292" height="2.219"/>
			<rect x="27.315" y="11.775" fill="#446EA0" width="2.292" height="2.221"/>
			<rect x="30.65" y="8.053" fill="#446EA0" width="9.067" height="2.219"/>
			<rect x="30.65" y="11.775" fill="#446EA0" width="9.067" height="2.221"/>
			<path fill="#446EA0" d="M25.621,20.49V6.571h17.432v7.308c0.208-0.025,0.418-0.042,0.632-0.042c0.338,0,0.667,0.042,0.987,0.103
				V2.519c0-0.597-0.485-1.081-1.08-1.081H25.081C24.484,1.438,24,1.921,24,2.519v18.514c0,0.596,0.484,1.08,1.081,1.08h13.528
				c-0.622-0.625-1.087-1.223-1.374-1.622L25.621,20.49L25.621,20.49z"/>
			<path fill="#446EA0" d="M42.514,14.799c-2.998,0-5.43,3.819-5.43,3.819s2.432,3.817,5.43,3.817s5.427-3.817,5.427-3.817
				S45.512,14.799,42.514,14.799z M42.514,20.445c-1.011,0-1.829-0.82-1.829-1.827c0-1.013,0.818-1.831,1.829-1.831
				c1.009,0,1.828,0.82,1.828,1.831C44.342,19.626,43.523,20.445,42.514,20.445z"/>
		</g>
	</g>
</g>
</svg>
